<?xml version="1.0" encoding="utf-8"?>
<!-- Generator: Adobe Illustrator 16.0.0, SVG Export Plug-In . SVG Version: 6.00 Build 0)  -->
<!DOCTYPE svg PUBLIC "-//W3C//DTD SVG 1.1//EN" "http://www.w3.org/Graphics/SVG/1.1/DTD/svg11.dtd">
<svg version="1.1" xmlns="http://www.w3.org/2000/svg" xmlns:xlink="http://www.w3.org/1999/xlink" x="0px" y="0px"
	 width="107.455px" height="22.395px" viewBox="0 0 107.455 22.395" enable-background="new 0 0 107.455 22.395"
	 xml:space="preserve">
<g id="Guides">
</g>
<g id="Foto">
	<g>
		<defs>
			<rect id="SVGID_3_" x="-374.07" y="-37.604" width="320" height="480"/>
		</defs>
		<clipPath id="SVGID_2_">
			<use xlink:href="#SVGID_3_"  overflow="visible"/>
		</clipPath>
		<g transform="matrix(1 0 0 1 0 0)" opacity="0.3" clip-path="url(#SVGID_2_)">
			
				<image overflow="visible" width="1600" height="1067" xlink:href="../Foto_Hybrico2.jpg"  transform="matrix(-0.6072 0 0 0.6059 74.9219 -152.415)">
			</image>
		</g>
	</g>
</g>
<g id="Layer_2">
	<g id="MenuBlanco">
		<g id="Menu_1_">
		</g>
	</g>
	<g id="Menu">
	</g>
	<g id="MenuBlanco_1_">
		<g id="Menu_2_">
		</g>
	</g>
	<g>
		<rect x="28.289" fill="#FFFFFF" width="0.998" height="22.395"/>
		<rect fill="#FFFFFF" width="0.996" height="22.395"/>
		<polygon fill="#FFFFFF" points="46.941,16.965 45.139,16.965 45.139,11.789 39.594,11.789 39.594,16.965 37.773,16.965 
			37.773,5.43 39.594,5.43 39.594,10.287 45.139,10.287 45.139,5.43 46.941,5.43 		"/>
		<polygon fill="#FFFFFF" points="54.059,16.965 52.238,16.965 52.238,12.442 47.805,5.43 49.818,5.43 53.141,10.906 56.461,5.43 
			58.475,5.43 54.059,12.426 		"/>
		<path fill="#FFFFFF" d="M64.621,15.463c1.482,0,2.242-0.602,2.242-1.748c0-1.148-0.76-1.803-2.242-1.803h-3.48v3.551H64.621z
			 M61.141,10.464h3.057c1.465,0,2.225-0.636,2.225-1.784s-0.76-1.748-2.225-1.748h-3.057V10.464z M64.461,5.43
			c2.527,0,3.852,1.061,3.852,3.057c0,1.289-0.582,2.172-1.715,2.631c1.414,0.371,2.139,1.325,2.139,2.791
			c0,1.996-1.307,3.057-3.832,3.057h-5.582V5.43H64.461z"/>
		<path fill="#FFFFFF" d="M75.66,11.277c1.766,0,2.613-0.707,2.613-2.191c0-1.431-0.848-2.154-2.613-2.154h-2.686v4.346H75.66z
			 M72.975,12.778v4.187h-1.82V5.43h4.752c2.791,0,4.24,1.254,4.24,3.691c0,1.908-0.9,3.092-2.686,3.498l2.896,4.346h-2.137
			l-2.703-4.187H72.975z"/>
		<rect x="82.617" y="5.43" fill="#FFFFFF" width="1.82" height="11.535"/>
		<path fill="#FFFFFF" d="M95.463,7.408c-1.025-0.406-2.086-0.635-3.039-0.635c-2.525,0-3.834,1.572-3.834,4.521
			c0,2.879,1.309,4.326,3.816,4.326c0.953,0,2.014-0.229,3.057-0.652l0.281,1.431c-1.148,0.513-2.455,0.794-3.744,0.794
			c-3.498,0-5.299-2.031-5.299-5.934c0-3.975,1.801-6.059,5.352-6.059c1.271,0,2.561,0.264,3.691,0.776L95.463,7.408z"/>
		<path fill="#FFFFFF" d="M102.385,15.622c2.209,0,3.197-1.343,3.197-4.628c0-2.95-0.902-4.221-3.197-4.221
			c-2.225,0-3.232,1.307-3.232,4.557C99.152,14.332,100.053,15.622,102.385,15.622 M107.455,11.135c0,2.862-0.812,6.059-5.158,6.059
			c-4.363,0-5.033-3.055-5.033-5.934c0-2.897,0.828-6.06,5.191-6.06S107.455,8.221,107.455,11.135"/>
		<rect x="7.324" y="9.86" fill="#FFFFFF" width="0.955" height="9.235"/>
		<rect x="7.324" y="14.001" fill="#FFFFFF" width="9.258" height="0.955"/>
		<rect x="11.953" y="18.141" fill="#FFFFFF" width="4.629" height="0.955"/>
		<rect x="11.953" y="9.86" fill="#FFFFFF" width="0.955" height="9.235"/>
		<rect x="17.352" y="18.141" fill="#FFFFFF" width="4.629" height="0.955"/>
		<rect x="17.352" y="14.001" fill="#FFFFFF" width="4.629" height="0.955"/>
		<rect x="17.352" y="14" fill="#FFFFFF" width="0.955" height="5.096"/>
		<rect x="21.025" y="14" fill="#FFFFFF" width="0.955" height="5.096"/>
		<rect x="21.006" y="3.297" fill="#FFFFFF" width="0.957" height="9.236"/>
		<rect x="12.705" y="7.438" fill="#FFFFFF" width="9.258" height="0.955"/>
		<rect x="12.705" y="3.297" fill="#FFFFFF" width="4.629" height="0.956"/>
		<rect x="16.379" y="3.297" fill="#FFFFFF" width="0.955" height="9.236"/>
		<rect x="7.307" y="3.297" fill="#FFFFFF" width="4.629" height="0.956"/>
		<rect x="7.307" y="7.438" fill="#FFFFFF" width="4.629" height="0.955"/>
		<rect x="10.98" y="3.297" fill="#FFFFFF" width="0.955" height="5.097"/>
		<rect x="7.307" y="3.297" fill="#FFFFFF" width="0.957" height="5.097"/>
	</g>
</g>
</svg>
