<?xml version="1.0" encoding="utf-8"?>
<!-- Generator: Adobe Illustrator 16.0.0, SVG Export Plug-In . SVG Version: 6.00 Build 0)  -->
<!DOCTYPE svg PUBLIC "-//W3C//DTD SVG 1.1//EN" "http://www.w3.org/Graphics/SVG/1.1/DTD/svg11.dtd">
<svg version="1.1" xmlns="http://www.w3.org/2000/svg" xmlns:xlink="http://www.w3.org/1999/xlink" x="0px" y="0px"
	 width="238.737px" height="57.693px" viewBox="0 0 238.737 57.693" enable-background="new 0 0 238.737 57.693"
	 xml:space="preserve">
<g id="Guides">
</g>
<g id="Foto">
</g>
<g id="Layer_2">
	<g id="MenuBlanco">
		<g id="Menu_1_">
		</g>
	</g>
	<g id="Menu">
	</g>
	<g id="MenuBlanco_1_">
		<g id="Menu_2_">
		</g>
	</g>
	<g>
		<rect x="66.803" y="5.743" fill="#42683C" width="2.04" height="45.815"/>
		<rect x="8.927" y="5.742" fill="#42683C" width="2.039" height="45.816"/>
		<polygon fill="#42683C" points="104.961,40.449 101.276,40.449 101.276,29.861 89.929,29.861 89.929,40.449 86.207,40.449 
			86.207,16.851 89.929,16.851 89.929,26.788 101.276,26.788 101.276,16.851 104.961,16.851 		"/>
		<polygon fill="#42683C" points="119.522,40.449 115.8,40.449 115.8,31.197 106.73,16.851 110.85,16.851 117.644,28.055 
			124.437,16.851 128.558,16.851 119.522,31.164 		"/>
		<path fill="#42683C" d="M141.13,37.378c3.037,0,4.589-1.231,4.589-3.577c0-2.349-1.552-3.688-4.589-3.688h-7.118v7.266H141.13z
			 M134.012,27.149l6.253,0.001c2.997,0,4.553-1.301,4.553-3.65s-1.556-3.576-4.553-3.576h-6.253V27.149z M140.806,16.852
			c5.167,0,7.878,2.169,7.878,6.253c0,2.638-1.191,4.443-3.507,5.382c2.894,0.76,4.373,2.712,4.373,5.71
			c0,4.085-2.673,6.253-7.84,6.253h-11.42V16.851L140.806,16.852z"/>
		<path fill="#42683C" d="M163.714,28.814c3.615,0,5.351-1.445,5.351-4.483c0-2.927-1.735-4.407-5.351-4.407h-5.491v8.891H163.714z
			 M158.223,31.885v8.564H154.5V16.852h9.721c5.709,0,8.673,2.564,8.673,7.551c0,3.906-1.843,6.326-5.492,7.157l5.924,8.89h-4.37
			l-5.53-8.564H158.223z"/>
		<rect x="177.95" y="16.852" fill="#42683C" width="3.723" height="23.598"/>
		<path fill="#42683C" d="M204.229,20.898c-2.097-0.83-4.265-1.299-6.216-1.299c-5.168,0-7.843,3.218-7.843,9.251
			c0,5.89,2.675,8.851,7.807,8.851c1.95,0,4.12-0.468,6.252-1.335l0.579,2.927c-2.351,1.05-5.025,1.624-7.663,1.624
			c-7.155,0-10.841-4.155-10.841-12.139c0-8.131,3.686-12.395,10.949-12.395c2.604,0,5.241,0.54,7.555,1.589L204.229,20.898z"/>
		<path fill="#42683C" d="M218.392,37.703c4.518,0,6.541-2.748,6.541-9.468c0-6.035-1.844-8.636-6.541-8.636
			c-4.553,0-6.614,2.674-6.614,9.323C211.777,35.064,213.621,37.703,218.392,37.703 M228.763,28.522
			c0,5.856-1.662,12.395-10.553,12.395c-8.926,0-10.297-6.248-10.297-12.139c0-5.928,1.697-12.396,10.622-12.396
			C227.462,16.382,228.763,22.562,228.763,28.522"/>
		<rect x="23.911" y="25.914" fill="#42683C" width="1.956" height="18.896"/>
		<rect x="23.911" y="34.386" fill="#42683C" width="18.939" height="1.954"/>
		<rect x="33.38" y="42.855" fill="#42683C" width="9.471" height="1.954"/>
		<rect x="33.381" y="25.914" fill="#42683C" width="1.954" height="18.896"/>
		<rect x="44.426" y="42.855" fill="#42683C" width="9.469" height="1.954"/>
		<rect x="44.426" y="34.386" fill="#42683C" width="9.469" height="1.954"/>
		<rect x="44.426" y="34.384" fill="#42683C" width="1.953" height="10.426"/>
		<rect x="51.94" y="34.385" fill="#42683C" width="1.954" height="10.425"/>
		<rect x="51.902" y="12.488" fill="#42683C" width="1.955" height="18.896"/>
		<rect x="34.921" y="20.959" fill="#42683C" width="18.938" height="1.954"/>
		<rect x="34.921" y="12.488" fill="#42683C" width="9.469" height="1.955"/>
		<rect x="42.435" y="12.488" fill="#42683C" width="1.953" height="18.896"/>
		<rect x="23.876" y="12.488" fill="#42683C" width="9.469" height="1.955"/>
		<rect x="23.876" y="20.958" fill="#42683C" width="9.469" height="1.953"/>
		<rect x="31.39" y="12.488" fill="#42683C" width="1.955" height="10.426"/>
		<rect x="23.876" y="12.488" fill="#42683C" width="1.955" height="10.426"/>
	</g>
</g>
</svg>
